<?xml version="1.0" standalone="no"?>
<!DOCTYPE svg PUBLIC "-//W3C//DTD SVG 20010904//EN"
 "http://www.w3.org/TR/2001/REC-SVG-20010904/DTD/svg10.dtd">
<svg version="1.0" xmlns="http://www.w3.org/2000/svg"
 width="165.000000pt" height="159.000000pt" viewBox="0 0 165.000000 159.000000"
 preserveAspectRatio="xMidYMid meet">

<g transform="translate(0.000000,159.000000) scale(0.100000,-0.100000)"
fill="#960018" stroke="none">
<path d="M200 1517 c-62 -29 -107 -80 -125 -141 -13 -43 -15 -138 -13 -606 3
-547 3 -556 25 -595 53 -99 109 -125 271 -125 l118 0 12 34 c17 47 80 123 141
170 l50 40 -33 40 c-63 78 -70 109 -32 145 67 63 309 67 402 7 39 -26 32 -69
-21 -137 l-45 -58 43 -29 c60 -42 125 -116 149 -169 l20 -45 133 4 c130 3 135
4 176 33 26 18 53 50 68 80 l26 49 3 546 c2 377 0 561 -8 597 -15 69 -57 125
-114 151 -45 22 -51 22 -633 21 -427 0 -595 -4 -613 -12z m1115 -169 c52 -34
95 -64 95 -68 0 -3 -36 -41 -79 -84 -77 -76 -101 -87 -101 -45 0 28 -19 32
-89 19 -109 -20 -229 -109 -280 -207 -31 -61 -53 -162 -48 -216 3 -39 2 -46
-8 -35 -17 18 -36 74 -42 123 -9 67 -22 76 -23 15 -1 -116 -52 -228 -133 -292
-23 -18 -44 -33 -47 -34 -3 0 -23 -9 -45 -19 -57 -27 -171 -31 -234 -10 -28 9
-53 20 -55 24 -3 4 11 40 30 80 31 65 36 70 55 61 29 -16 112 -14 145 3 43 22
81 64 94 102 15 45 17 93 19 353 l1 222 85 0 85 0 0 -217 c0 -119 2 -214 5
-211 3 3 10 34 16 68 22 139 108 253 239 319 56 28 98 41 144 46 l65 7 -6 29
c-3 19 -1 29 6 29 7 0 55 -28 106 -62z m-376 -374 c-42 -150 80 -320 233 -325
51 -2 108 9 127 24 15 12 39 -12 88 -87 l26 -40 -23 -18 c-60 -48 -232 -64
-332 -29 -136 47 -196 114 -213 238 -10 79 28 210 77 262 26 29 30 24 17 -25z"/>
<path d="M763 488 c-18 -6 -33 -17 -33 -24 0 -14 68 -74 84 -74 21 0 86 54 86
70 0 11 -12 22 -31 29 -38 13 -62 13 -106 -1z"/>
<path d="M1004 453 c11 -21 -11 -57 -87 -140 -86 -95 -104 -128 -113 -206 -6
-47 -4 -57 8 -57 12 0 16 16 20 68 6 83 19 108 103 201 73 80 93 118 74 135
-9 8 -10 8 -5 -1z"/>
<path d="M620 424 c0 -14 51 -85 76 -104 10 -8 3 5 -17 30 -20 25 -41 54 -47
65 -6 11 -12 15 -12 9z"/>
<path d="M765 323 c-147 -102 -255 -214 -255 -265 0 -21 21 -5 34 27 31 73
122 161 274 264 52 35 73 53 60 51 -2 -1 -52 -35 -113 -77z"/>
<path d="M996 204 c39 -38 79 -89 89 -112 10 -23 22 -42 27 -42 30 0 -39 107
-105 162 -83 71 -88 68 -11 -8z"/>
<path d="M669 84 c-11 -30 -3 -46 11 -24 10 16 13 50 5 50 -3 0 -10 -12 -16
-26z"/>
<path d="M942 86 c2 -16 9 -31 17 -34 10 -3 11 2 6 19 -12 39 -27 48 -23 15z"/>
</g>
</svg>
